<?xml version="1.0" standalone="no"?>
<!DOCTYPE svg PUBLIC "-//W3C//DTD SVG 20010904//EN"
 "http://www.w3.org/TR/2001/REC-SVG-20010904/DTD/svg10.dtd">
<svg version="1.0" xmlns="http://www.w3.org/2000/svg"
 width="2000.000000pt" height="2000.000000pt" viewBox="0 0 2000.000000 2000.000000"
 preserveAspectRatio="xMidYMid meet">

<g transform="translate(0.000000,2000.000000) scale(0.100000,-0.100000)"
fill="#000000" stroke="none">
<path d="M9615 17329 c-1721 -102 -3340 -979 -4383 -2374 -596 -796 -979
-1718 -1121 -2695 -46 -313 -56 -469 -55 -860 0 -389 10 -534 54 -845 239
-1662 1182 -3148 2600 -4095 557 -373 1239 -669 1895 -824 428 -101 872 -157
1275 -160 l175 -1 67 33 c79 39 129 93 158 169 45 119 15 250 -76 339 -78 76
-109 85 -364 95 -529 20 -937 87 -1405 230 -791 240 -1542 686 -2139 1269
-944 922 -1501 2116 -1596 3425 -13 181 -13 572 1 750 40 543 159 1063 360
1570 210 533 500 1015 887 1475 136 161 472 496 632 630 786 655 1720 1065
2725 1195 1284 166 2562 -137 3645 -865 464 -312 920 -746 1269 -1209 575
-762 934 -1673 1036 -2631 16 -154 32 -570 22 -570 -3 0 -133 94 -288 210
-156 115 -283 209 -284 207 -2 -1 73 -463 166 -1027 92 -564 189 -1155 215
-1313 39 -238 49 -286 60 -275 35 35 1572 2123 1565 2126 -7 2 -683 -107 -763
-124 l-28 -6 0 209 c0 1314 -425 2580 -1209 3603 -305 399 -707 804 -1096
1106 -523 407 -1116 724 -1745 934 -732 244 -1488 344 -2255 299z"/>
<path d="M9705 15614 c-196 -13 -505 -61 -700 -110 -133 -33 -425 -126 -425
-135 0 -8 -91 230 1210 -3179 593 -1554 1236 -3241 1430 -3750 194 -509 356
-929 360 -933 8 -10 253 103 411 189 322 175 546 333 811 571 886 796 1398
1945 1398 3139 0 557 -120 1139 -341 1657 -458 1069 -1342 1906 -2431 2301
-325 118 -682 201 -1013 236 -103 11 -603 21 -710 14z m2437 -2467 c230 -398
420 -731 424 -740 6 -16 -17 -17 -290 -17 l-296 0 0 -845 0 -845 -22 -47 c-98
-208 -377 -208 -474 2 l-24 50 0 843 0 842 -296 0 c-241 0 -295 2 -292 13 4
20 841 1467 848 1467 3 0 193 -326 422 -723z"/>
<path d="M7516 13034 c-192 -379 -490 -969 -663 -1311 l-315 -623 1122 0 c894
0 1121 3 1117 13 -6 17 -875 2500 -897 2561 l-16 50 -348 -690z"/>
<path d="M6020 9917 c0 -26 94 -246 170 -397 207 -414 427 -722 755 -1059 671
-688 1553 -1124 2525 -1247 120 -15 690 -33 690 -21 0 3 -93 268 -206 589
-113 320 -327 927 -474 1348 -148 421 -272 773 -275 783 -7 16 -92 17 -1596
17 -1293 0 -1589 -2 -1589 -13z"/>
<path d="M14464 8436 c-139 -44 -232 -181 -222 -326 9 -118 70 -209 180 -267
73 -38 188 -40 263 -3 72 35 124 87 157 155 53 112 31 262 -50 349 -82 87
-220 126 -328 92z"/>
<path d="M13319 7205 c-137 -50 -214 -160 -214 -305 0 -62 5 -85 28 -132 77
-156 266 -223 422 -150 115 55 178 154 179 283 1 68 -3 84 -34 145 -40 78
-102 132 -182 158 -60 19 -149 20 -199 1z"/>
<path d="M11870 6365 c-123 -40 -215 -167 -215 -294 1 -117 40 -197 133 -268
54 -41 110 -58 193 -57 78 1 138 26 199 86 121 117 128 313 16 445 -66 78
-225 121 -326 88z"/>
</g>
</svg>
